<mxfile host="app.diagrams.net" modified="2022-03-18T10:41:16.213Z" agent="5.0 (Windows NT 10.0; Win64; x64) AppleWebKit/537.36 (KHTML, like Gecko) Chrome/99.0.4844.51 Safari/537.36" etag="QIR-_e8EY9FOZcXXCSEo" version="17.0.0" type="github">
  <diagram id="ipIxua8m2UVUWKVn4qFV" name="Page-1">
    <mxGraphModel dx="2330" dy="946" grid="1" gridSize="10" guides="1" tooltips="1" connect="1" arrows="1" fold="1" page="1" pageScale="1" pageWidth="850" pageHeight="1100" math="0" shadow="0">
      <root>
        <mxCell id="0" />
        <mxCell id="1" parent="0" />
        <mxCell id="cisF5wC6rEXvaVnQ3YI_-43" value="" style="verticalLabelPosition=bottom;verticalAlign=top;html=1;shape=mxgraph.basic.rect;fillColor2=none;strokeWidth=1;size=20;indent=5;fontSize=10;" vertex="1" parent="1">
          <mxGeometry x="148" y="10" width="440" height="700" as="geometry" />
        </mxCell>
        <mxCell id="cisF5wC6rEXvaVnQ3YI_-11" style="edgeStyle=orthogonalEdgeStyle;rounded=0;orthogonalLoop=1;jettySize=auto;html=1;exitX=0.5;exitY=1;exitDx=0;exitDy=0;entryX=0.5;entryY=0;entryDx=0;entryDy=0;" edge="1" parent="1" source="cisF5wC6rEXvaVnQ3YI_-1" target="cisF5wC6rEXvaVnQ3YI_-3">
          <mxGeometry relative="1" as="geometry" />
        </mxCell>
        <mxCell id="cisF5wC6rEXvaVnQ3YI_-1" value="Tasks of Project" style="rounded=0;whiteSpace=wrap;html=1;" vertex="1" parent="1">
          <mxGeometry x="365" y="30" width="120" height="40" as="geometry" />
        </mxCell>
        <mxCell id="cisF5wC6rEXvaVnQ3YI_-12" style="edgeStyle=orthogonalEdgeStyle;rounded=0;orthogonalLoop=1;jettySize=auto;html=1;exitX=0.5;exitY=1;exitDx=0;exitDy=0;entryX=0.5;entryY=0;entryDx=0;entryDy=0;" edge="1" parent="1" source="cisF5wC6rEXvaVnQ3YI_-3" target="cisF5wC6rEXvaVnQ3YI_-4">
          <mxGeometry relative="1" as="geometry" />
        </mxCell>
        <mxCell id="cisF5wC6rEXvaVnQ3YI_-3" value="SCM" style="rounded=0;whiteSpace=wrap;html=1;" vertex="1" parent="1">
          <mxGeometry x="365" y="110" width="120" height="40" as="geometry" />
        </mxCell>
        <mxCell id="cisF5wC6rEXvaVnQ3YI_-13" style="edgeStyle=orthogonalEdgeStyle;rounded=0;orthogonalLoop=1;jettySize=auto;html=1;exitX=0.5;exitY=1;exitDx=0;exitDy=0;entryX=0.5;entryY=0;entryDx=0;entryDy=0;" edge="1" parent="1" source="cisF5wC6rEXvaVnQ3YI_-4" target="cisF5wC6rEXvaVnQ3YI_-5">
          <mxGeometry relative="1" as="geometry" />
        </mxCell>
        <mxCell id="cisF5wC6rEXvaVnQ3YI_-4" value="Project code" style="rounded=0;whiteSpace=wrap;html=1;" vertex="1" parent="1">
          <mxGeometry x="365" y="190" width="120" height="40" as="geometry" />
        </mxCell>
        <mxCell id="cisF5wC6rEXvaVnQ3YI_-14" style="edgeStyle=orthogonalEdgeStyle;rounded=0;orthogonalLoop=1;jettySize=auto;html=1;exitX=0.5;exitY=1;exitDx=0;exitDy=0;entryX=0.5;entryY=0;entryDx=0;entryDy=0;" edge="1" parent="1" source="cisF5wC6rEXvaVnQ3YI_-5" target="cisF5wC6rEXvaVnQ3YI_-10">
          <mxGeometry relative="1" as="geometry" />
        </mxCell>
        <mxCell id="cisF5wC6rEXvaVnQ3YI_-5" value="Commit/Merge" style="rounded=0;whiteSpace=wrap;html=1;" vertex="1" parent="1">
          <mxGeometry x="365" y="270" width="120" height="40" as="geometry" />
        </mxCell>
        <mxCell id="cisF5wC6rEXvaVnQ3YI_-6" value="&lt;font style=&quot;font-size: 8px&quot;&gt;Working in branches&lt;/font&gt;" style="text;html=1;strokeColor=none;fillColor=none;align=center;verticalAlign=middle;whiteSpace=wrap;rounded=0;" vertex="1" parent="1">
          <mxGeometry x="418" y="246" width="140" height="30" as="geometry" />
        </mxCell>
        <mxCell id="cisF5wC6rEXvaVnQ3YI_-9" style="edgeStyle=orthogonalEdgeStyle;rounded=0;orthogonalLoop=1;jettySize=auto;html=1;exitX=0;exitY=0.5;exitDx=0;exitDy=0;entryX=0;entryY=0.5;entryDx=0;entryDy=0;startArrow=none;" edge="1" parent="1" source="cisF5wC6rEXvaVnQ3YI_-21" target="cisF5wC6rEXvaVnQ3YI_-4">
          <mxGeometry relative="1" as="geometry">
            <Array as="points">
              <mxPoint x="260" y="210" />
            </Array>
          </mxGeometry>
        </mxCell>
        <mxCell id="cisF5wC6rEXvaVnQ3YI_-25" style="edgeStyle=orthogonalEdgeStyle;rounded=0;orthogonalLoop=1;jettySize=auto;html=1;exitX=0.5;exitY=1;exitDx=0;exitDy=0;" edge="1" parent="1" source="cisF5wC6rEXvaVnQ3YI_-8" target="cisF5wC6rEXvaVnQ3YI_-18">
          <mxGeometry relative="1" as="geometry" />
        </mxCell>
        <mxCell id="cisF5wC6rEXvaVnQ3YI_-8" value="Code Reviews" style="rhombus;whiteSpace=wrap;html=1;" vertex="1" parent="1">
          <mxGeometry x="370" y="430" width="110" height="50" as="geometry" />
        </mxCell>
        <mxCell id="cisF5wC6rEXvaVnQ3YI_-15" style="edgeStyle=orthogonalEdgeStyle;rounded=0;orthogonalLoop=1;jettySize=auto;html=1;exitX=0.5;exitY=1;exitDx=0;exitDy=0;entryX=0.5;entryY=0;entryDx=0;entryDy=0;" edge="1" parent="1" source="cisF5wC6rEXvaVnQ3YI_-10" target="cisF5wC6rEXvaVnQ3YI_-8">
          <mxGeometry relative="1" as="geometry" />
        </mxCell>
        <mxCell id="cisF5wC6rEXvaVnQ3YI_-10" value="Automatic build" style="rounded=0;whiteSpace=wrap;html=1;" vertex="1" parent="1">
          <mxGeometry x="365" y="350" width="120" height="40" as="geometry" />
        </mxCell>
        <mxCell id="cisF5wC6rEXvaVnQ3YI_-16" value="&lt;font style=&quot;font-size: 8px&quot;&gt;Static Code Analysis test&lt;/font&gt;" style="text;html=1;strokeColor=none;fillColor=none;align=center;verticalAlign=middle;whiteSpace=wrap;rounded=0;" vertex="1" parent="1">
          <mxGeometry x="440" y="420" width="140" height="30" as="geometry" />
        </mxCell>
        <mxCell id="cisF5wC6rEXvaVnQ3YI_-26" style="edgeStyle=orthogonalEdgeStyle;rounded=0;orthogonalLoop=1;jettySize=auto;html=1;exitX=0;exitY=0.5;exitDx=0;exitDy=0;entryX=0;entryY=0.5;entryDx=0;entryDy=0;" edge="1" parent="1" source="cisF5wC6rEXvaVnQ3YI_-18" target="cisF5wC6rEXvaVnQ3YI_-21">
          <mxGeometry relative="1" as="geometry">
            <Array as="points">
              <mxPoint x="190" y="544" />
              <mxPoint x="190" y="290" />
            </Array>
          </mxGeometry>
        </mxCell>
        <mxCell id="cisF5wC6rEXvaVnQ3YI_-33" style="edgeStyle=orthogonalEdgeStyle;rounded=0;orthogonalLoop=1;jettySize=auto;html=1;exitX=0.5;exitY=1;exitDx=0;exitDy=0;entryX=0.5;entryY=0;entryDx=0;entryDy=0;fontSize=10;" edge="1" parent="1" source="cisF5wC6rEXvaVnQ3YI_-18" target="cisF5wC6rEXvaVnQ3YI_-31">
          <mxGeometry relative="1" as="geometry" />
        </mxCell>
        <mxCell id="cisF5wC6rEXvaVnQ3YI_-18" value="Testing" style="rhombus;whiteSpace=wrap;html=1;" vertex="1" parent="1">
          <mxGeometry x="370" y="519" width="110" height="50" as="geometry" />
        </mxCell>
        <mxCell id="cisF5wC6rEXvaVnQ3YI_-21" value="Fix code" style="rounded=0;whiteSpace=wrap;html=1;" vertex="1" parent="1">
          <mxGeometry x="220" y="270" width="80" height="40" as="geometry" />
        </mxCell>
        <mxCell id="cisF5wC6rEXvaVnQ3YI_-22" value="" style="edgeStyle=orthogonalEdgeStyle;rounded=0;orthogonalLoop=1;jettySize=auto;html=1;exitX=0;exitY=0.5;exitDx=0;exitDy=0;entryX=0.5;entryY=1;entryDx=0;entryDy=0;endArrow=none;" edge="1" parent="1" source="cisF5wC6rEXvaVnQ3YI_-8" target="cisF5wC6rEXvaVnQ3YI_-21">
          <mxGeometry relative="1" as="geometry">
            <mxPoint x="370" y="455" as="sourcePoint" />
            <mxPoint x="365" y="210" as="targetPoint" />
            <Array as="points">
              <mxPoint x="260" y="455" />
            </Array>
          </mxGeometry>
        </mxCell>
        <mxCell id="cisF5wC6rEXvaVnQ3YI_-24" value="&lt;font style=&quot;font-size: 10px&quot;&gt;Issues detected&lt;/font&gt;" style="text;html=1;strokeColor=none;fillColor=none;align=center;verticalAlign=middle;whiteSpace=wrap;rounded=0;" vertex="1" parent="1">
          <mxGeometry x="196" y="390" width="140" height="30" as="geometry" />
        </mxCell>
        <mxCell id="cisF5wC6rEXvaVnQ3YI_-27" value="&lt;font style=&quot;font-size: 10px&quot;&gt;Issues detected&lt;/font&gt;" style="text;html=1;strokeColor=none;fillColor=none;align=center;verticalAlign=middle;whiteSpace=wrap;rounded=0;" vertex="1" parent="1">
          <mxGeometry x="136" y="481" width="116" height="30" as="geometry" />
        </mxCell>
        <mxCell id="cisF5wC6rEXvaVnQ3YI_-28" value="&lt;font style=&quot;font-size: 10px&quot;&gt;No errors detected&lt;/font&gt;" style="text;html=1;strokeColor=none;fillColor=none;align=center;verticalAlign=middle;whiteSpace=wrap;rounded=0;" vertex="1" parent="1">
          <mxGeometry x="355" y="480" width="140" height="30" as="geometry" />
        </mxCell>
        <mxCell id="cisF5wC6rEXvaVnQ3YI_-31" value="Deploy" style="rounded=0;whiteSpace=wrap;html=1;" vertex="1" parent="1">
          <mxGeometry x="363" y="600" width="120" height="40" as="geometry" />
        </mxCell>
        <mxCell id="cisF5wC6rEXvaVnQ3YI_-44" value="&lt;span style=&quot;text-align: left ; background-color: rgb(252 , 252 , 252)&quot;&gt;&lt;font style=&quot;font-size: 24px&quot; color=&quot;#000099&quot;&gt;&lt;b&gt;Technical diagram of procces&lt;/b&gt;&lt;/font&gt;&lt;/span&gt;" style="text;html=1;strokeColor=none;fillColor=none;align=center;verticalAlign=middle;whiteSpace=wrap;rounded=0;" vertex="1" parent="1">
          <mxGeometry x="28" y="660" width="680" height="30" as="geometry" />
        </mxCell>
      </root>
    </mxGraphModel>
  </diagram>
</mxfile>
